HIERARCHY
ROOT Hips
{
	OFFSET -14.64140 90.27770 -84.91600
	CHANNELS 6 Xposition Yposition Zposition Zrotation Xrotation Yrotation
	JOINT Spine
	{
		OFFSET 0.00000 13.20850 -1.60436
		CHANNELS 3 Zrotation Xrotation Yrotation
		JOINT Spine1
		{
			OFFSET 0.00000 8.61716 0.00000
			CHANNELS 3 Zrotation Xrotation Yrotation
			JOINT Spine2
			{
				OFFSET 0.00000 8.61717 0.00000
				CHANNELS 3 Zrotation Xrotation Yrotation
				JOINT Spine3
				{
					OFFSET 0.00000 8.61717 0.00000
					CHANNELS 3 Zrotation Xrotation Yrotation
					JOINT Neck
					{
						OFFSET 0.00000 11.07920 1.10792
						CHANNELS 3 Zrotation Xrotation Yrotation
						JOINT Neck1
						{
							OFFSET 0.00000 7.08032 0.00000
							CHANNELS 3 Zrotation Xrotation Yrotation
							JOINT Head
							{
								OFFSET 0.00000 7.08031 0.00000
								CHANNELS 3 Zrotation Xrotation Yrotation
								End site
								{
									OFFSET 0.00000 0.00000 0.00000
								}
							}
						}
					}
					JOINT RightShoulder
					{
						OFFSET -0.01000 7.91373 5.19711
						CHANNELS 3 Zrotation Xrotation Yrotation
						JOINT RightArm
						{
							OFFSET -18.41580 0.00000 0.00000
							CHANNELS 3 Zrotation Xrotation Yrotation
							JOINT RightForeArm
							{
								OFFSET -29.11090 0.00000 0.00000
								CHANNELS 3 Zrotation Xrotation Yrotation
								JOINT RightHand
								{
									OFFSET -24.65040 0.00000 0.00000
									CHANNELS 3 Zrotation Xrotation Yrotation
									JOINT RightHandThumb1
									{
										OFFSET -5.35114 -0.85590 3.97906
										CHANNELS 3 Zrotation Xrotation Yrotation
										JOINT RightHandThumb2
										{
											OFFSET -4.52789 0.00000 0.00000
											CHANNELS 3 Zrotation Xrotation Yrotation
											JOINT RightHandThumb3
											{
												OFFSET -2.46976 0.00000 0.00000
												CHANNELS 3 Zrotation Xrotation Yrotation
												End site
												{
													OFFSET 0.00000 0.00000 0.00000
												}
											}
										}
									}
									JOINT RightHandIndex1
									{
										OFFSET -14.26970 0.00000 2.88139
										CHANNELS 3 Zrotation Xrotation Yrotation
										JOINT RightHandIndex2
										{
											OFFSET -5.48836 0.00000 0.00000
											CHANNELS 3 Zrotation Xrotation Yrotation
											JOINT RightHandIndex3
											{
												OFFSET -3.01859 0.00000 0.00000
												CHANNELS 3 Zrotation Xrotation Yrotation
												End site
												{
													OFFSET 0.00000 0.00000 0.00000
												}
											}
										}
									}
									JOINT RightHandMiddle1
									{
										OFFSET -14.26970 0.00000 -0.09147
										CHANNELS 3 Zrotation Xrotation Yrotation
										JOINT RightHandMiddle2
										{
											OFFSET -6.17441 0.00000 0.00000
											CHANNELS 3 Zrotation Xrotation Yrotation
											JOINT RightHandMiddle3
											{
												OFFSET -3.56743 0.00000 0.00000
												CHANNELS 3 Zrotation Xrotation Yrotation
												End site
												{
													OFFSET 0.00000 0.00000 0.00000
												}
											}
										}
									}
									JOINT RightHandRing1
									{
										OFFSET -12.69180 0.00000 -3.06433
										CHANNELS 3 Zrotation Xrotation Yrotation
										JOINT RightHandRing2
										{
											OFFSET -5.62556 0.00000 0.00000
											CHANNELS 3 Zrotation Xrotation Yrotation
											JOINT RightHandRing3
											{
												OFFSET -3.56744 0.00000 0.00000
												CHANNELS 3 Zrotation Xrotation Yrotation
												End site
												{
													OFFSET 0.00000 0.00000 0.00000
												}
											}
										}
									}
									JOINT RightHandPinky1
									{
										OFFSET -11.11390 0.00000 -6.03719
										CHANNELS 3 Zrotation Xrotation Yrotation
										JOINT RightHandPinky2
										{
											OFFSET -4.52789 0.00000 0.00000
											CHANNELS 3 Zrotation Xrotation Yrotation
											JOINT RightHandPinky3
											{
												OFFSET -2.46976 0.00000 0.00000
												CHANNELS 3 Zrotation Xrotation Yrotation
												End site
												{
													OFFSET 0.00000 0.00000 0.00000
												}
											}
										}
									}
								}
							}
						}
					}
					JOINT LeftShoulder
					{
						OFFSET 0.01000 7.91373 5.19711
						CHANNELS 3 Zrotation Xrotation Yrotation
						JOINT LeftArm
						{
							OFFSET 18.41580 0.00000 0.00000
							CHANNELS 3 Zrotation Xrotation Yrotation
							JOINT LeftForeArm
							{
								OFFSET 29.11090 0.00000 0.00000
								CHANNELS 3 Zrotation Xrotation Yrotation
								JOINT LeftHand
								{
									OFFSET 24.65040 0.00000 0.00000
									CHANNELS 3 Zrotation Xrotation Yrotation
									JOINT LeftHandThumb1
									{
										OFFSET 5.35114 -0.85590 3.97906
										CHANNELS 3 Zrotation Xrotation Yrotation
										JOINT LeftHandThumb2
										{
											OFFSET 4.52789 0.00000 0.00000
											CHANNELS 3 Zrotation Xrotation Yrotation
											JOINT LeftHandThumb3
											{
												OFFSET 2.46977 0.00000 0.00000
												CHANNELS 3 Zrotation Xrotation Yrotation
												End site
												{
													OFFSET 0.00000 0.00000 0.00000
												}
											}
										}
									}
									JOINT LeftHandIndex1
									{
										OFFSET 14.26970 0.00000 2.88139
										CHANNELS 3 Zrotation Xrotation Yrotation
										JOINT LeftHandIndex2
										{
											OFFSET 5.48836 0.00000 0.00000
											CHANNELS 3 Zrotation Xrotation Yrotation
											JOINT LeftHandIndex3
											{
												OFFSET 3.01859 0.00000 0.00000
												CHANNELS 3 Zrotation Xrotation Yrotation
												End site
												{
													OFFSET 0.00000 0.00000 0.00000
												}
											}
										}
									}
									JOINT LeftHandMiddle1
									{
										OFFSET 14.26970 0.00000 -0.09147
										CHANNELS 3 Zrotation Xrotation Yrotation
										JOINT LeftHandMiddle2
										{
											OFFSET 6.17440 0.00000 0.00000
											CHANNELS 3 Zrotation Xrotation Yrotation
											JOINT LeftHandMiddle3
											{
												OFFSET 3.56744 0.00000 0.00000
												CHANNELS 3 Zrotation Xrotation Yrotation
												End site
												{
													OFFSET 0.00000 0.00000 0.00000
												}
											}
										}
									}
									JOINT LeftHandRing1
									{
										OFFSET 12.69180 0.00000 -3.06433
										CHANNELS 3 Zrotation Xrotation Yrotation
										JOINT LeftHandRing2
										{
											OFFSET 5.62556 0.00000 0.00000
											CHANNELS 3 Zrotation Xrotation Yrotation
											JOINT LeftHandRing3
											{
												OFFSET 3.56744 0.00000 0.00000
												CHANNELS 3 Zrotation Xrotation Yrotation
												End site
												{
													OFFSET 0.00000 0.00000 0.00000
												}
											}
										}
									}
									JOINT LeftHandPinky1
									{
										OFFSET 11.11390 0.00000 -6.03719
										CHANNELS 3 Zrotation Xrotation Yrotation
										JOINT LeftHandPinky2
										{
											OFFSET 4.52789 0.00000 0.00000
											CHANNELS 3 Zrotation Xrotation Yrotation
											JOINT LeftHandPinky3
											{
												OFFSET 2.46976 0.00000 0.00000
												CHANNELS 3 Zrotation Xrotation Yrotation
												End site
												{
													OFFSET 0.00000 0.00000 0.00000
												}
											}
										}
									}
								}
							}
						}
					}
					JOINT pCube4
					{
						OFFSET 0.00000 10.91090 1.10792
						CHANNELS 3 Zrotation Xrotation Yrotation
						End site
						{
							OFFSET 0.00000 0.00000 0.00000
						}
					}
				}
			}
		}
	}
	JOINT RightUpLeg
	{
		OFFSET -9.98441 0.00000 0.00000
		CHANNELS 3 Zrotation Xrotation Yrotation
		JOINT RightLeg
		{
			OFFSET 0.00000 -42.11790 0.00000
			CHANNELS 3 Zrotation Xrotation Yrotation
			JOINT RightFoot
			{
				OFFSET 0.00000 -45.00020 -0.00001
				CHANNELS 3 Zrotation Xrotation Yrotation
				JOINT RightForeFoot
				{
					OFFSET 0.00000 -3.74820 0.00000
					CHANNELS 3 Zrotation Xrotation Yrotation
					JOINT RightToeBase
					{
						OFFSET 0.00000 0.06325 14.43120
						CHANNELS 3 Zrotation Xrotation Yrotation
						End site
						{
							OFFSET 0.00000 0.00000 0.00000
						}
					}
				}
			}
		}
	}
	JOINT LeftUpLeg
	{
		OFFSET 9.98441 0.00000 0.00000
		CHANNELS 3 Zrotation Xrotation Yrotation
		JOINT LeftLeg
		{
			OFFSET 0.00000 -42.11800 0.00000
			CHANNELS 3 Zrotation Xrotation Yrotation
			JOINT LeftFoot
			{
				OFFSET 0.00000 -45.00070 0.00000
				CHANNELS 3 Zrotation Xrotation Yrotation
				JOINT LeftForeFoot
				{
					OFFSET 0.00000 -3.74824 0.00000
					CHANNELS 3 Zrotation Xrotation Yrotation
					JOINT LeftToeBase
					{
						OFFSET 0.00000 0.06325 14.43110
						CHANNELS 3 Zrotation Xrotation Yrotation
						End site
						{
							OFFSET 0.00000 0.00000 0.00000
						}
					}
				}
			}
		}
	}
}
MOTION
Frames: 4
Frame Time: 0.050000
-0.03476295128769087 0.031859194315572895 0.009611112961964277 -0.014852478436709282 -0.02809622072369283 0.019629587637902957 5.18131925315604 3.3827462109211313 -2.249817598947851 -0.8318889730955631 3.4217871400545983 0.4507732734860515 -0.5914924790198807 -0.8217159849724397 1.054220949138244 -0.8036830425366069 -0.5470682762300347 -0.21498321011458493 -0.27537575546105686 11.23798123352133 -0.5910181763306412 0.01819486200359022 -0.9985210200510503 -1.3221129913131495 0.2774970903251613 -17.77290448121193 -0.07584800675131953 -10.973910871491707 3.936924624207683 -17.403487815848457 81.85526865746796 -4.5491574258308445 12.968766709263031 31.258034471598943 1.7093562785820946 95.16734839589935 9.281464319088654 -0.4029328927028291 -3.9716285472841077 4.511853900057625 -0.14153994936854494 -1.5814536734727007 0.008983474300933159 -0.027849929348049387 -56.21492055109147 0.012223447934344345 0.0332493546400771 -56.2468235004747 -38.78244017549 -0.014575045376566486 -0.002599658209993816 -0.005374852010332851 0.02126125217833759 0.029791703797925687 -0.027241492026057395 0.008432197455967436 0.021571941269775928 -36.674633706369015 0.03839903539469663 0.020147483493661994 -0.041662464616678954 0.029681882402648456 -0.0452730153093647 0.030320470077976003 -0.03046063287501411 -0.0327420700160622 -19.762236986125263 -0.008428166741897208 -0.008109474255853635 0.004522989587380858 0.017920849783394206 -0.036662327874501806 -0.02866311871726956 0.002858910077207222 0.03831204762790667 24.061726431199613 -0.0227845644509765 -0.024248526665175477 28.876823187094033 -0.027414495441024245 0.037202402830367055 28.88943192909444 0.04478974511549902 0.002895922360883717 10.090585539357082 2.458753746476242 14.222813055094733 -77.13147542089911 18.457803649120866 -13.039675511755277 -9.278886924671374 12.229260610632876 -56.33712975513826 -19.033551563612193 -2.4197988039491447 3.2464293002223963 -0.5216934807430971 0.09070166722319112 -8.173251583628783 0.0264936703614033 0.027429642242812045 44.60396872978743 -0.04392607719084806 -0.03734196265583353 44.55742271676704 12.425851778935503 0.017541523382372016 0.0012282173112250266 0.029094983219666904 -0.021255405970946308 0.015689010054369 0.026666600295575382 0.034940984299450056 0.003380844129553845 11.142256491006751 0.023705468449445415 0.000987692827413769 0.03562226549619815 0.00861170523522729 0.01684606082298771 0.019328288677501988 0.04228870958981912 0.021025850992651626 4.787272282729818 0.00763703160837204 -0.0047644373475676585 0.030820802732348173 -0.04776759489533841 0.04645135139949641 0.043047566526683026 0.0308600075726274 0.02392608883780932 -5.578913584495743 -0.0012202279602091732 0.043678482617807934 -6.672903952467036 -0.030471576842507436 -0.04017030101205511 -6.7492828594470815 -0.011817690327164837 0.02845071453216793 -0.019889483618474788 0.028023461933629513 0.02645506971015386 8.064798266857268 3.4737613585232068 -19.248475086123957 -0.044151374396464285 10.408091503064796 -0.031714064449670426 -5.668866987666654 -15.61163968338799 3.1996234647740667 0.030073629344598337 -0.02949727448056248 -0.02113138532349542 -0.03358437967533211 4.68805656997666 -0.0007118931771491584 12.42640270854528 -8.28396170065329 6.913955507552959 0.013136223747452255 46.40774924675942 0.03941250644122983 -4.351513244760428 -14.768749478274048 -3.859326204769016 0.016009971319961076 0.014955375714650809 0.03340666621527124 -0.029468774030592882 -10.715300831186298 0.04864540631493596 
0.04619293919843408 -0.011590964914366533 0.015832394800747312 0.028681021152317066 0.012441551330837358 -0.0359354115806046 5.243759072323528 3.3550606161586263 -2.314884861997933 -0.8387354499162238 3.4860268975619118 0.3988456453446389 -0.5945004498581695 -0.8516245590392745 1.29021443615669 -0.7707290049523494 -0.5087281371994118 -0.22753141959472256 -0.17048716830707375 11.209994590853471 -0.8658766003656071 -0.015900038527624505 -1.080218012596099 -2.00595786368941 0.40371643966458926 -17.810872366119906 -0.18888037156904222 -10.884552796172898 3.8641830286393577 -17.414538151650035 81.23789285522997 -4.018998647784439 13.18305627642501 30.66579202425629 2.236129619971999 94.94406857414309 9.58503700452411 -0.4357911968931062 -4.027180555375204 4.4832345070457835 -0.11894258385594911 -1.6342683059975098 -0.011511298776744991 0.0019837610078025083 -56.23142574885894 0.010064072337423366 -0.005180839435046741 -56.23049631737944 -38.7310613757885 0.013555209861764662 0.04360431477390769 0.005670399870287669 -0.04117431380033924 -0.029990987036862836 -0.002526845797794693 0.018659213564513617 0.0487762907652402 -36.71455122619694 -0.038118500485966655 -0.0400918990139115 -0.022373258145478074 0.017738477622554507 0.01399005351872332 0.03594672105271044 -0.03942602655937055 -0.027501397619307588 -19.78462345240603 0.0036425981165028112 -0.0032007568977915793 0.013092202261679496 -0.014783361443861713 0.03476221194645399 -0.03629392440969944 0.025962668633867394 -0.009112307105449432 24.025403404042976 0.024317255090588928 0.009983327864437367 28.88159077737663 -0.009121587076139998 -0.0011007569654297004 28.850276225481565 0.0459719403479613 -0.04518701468223574 9.722390614389298 2.3488721867761337 14.330777811298258 -77.32247902742964 18.479644206029395 -11.632995330068784 -7.126241243087807 11.817722058291944 -53.14550168725577 -19.281876479942408 -1.9230715247632613 2.9796217897812185 -0.4511189016834373 0.08217568176326775 -8.152656210152186 -0.0317697953257738 0.014402080253498416 44.55799556252999 0.024287478295746456 -0.031019806327980178 44.55556212783579 12.467172644371352 -0.02120207760031526 -0.008922293526040199 -0.005523179205132748 -0.02306763721650765 -0.01684749203346212 0.020880822335507292 -0.026257339686527575 -0.03045297631263456 11.075840338113197 0.04902409955242788 -0.027909908869741706 0.042946492957543915 0.04531375407938111 -0.033842401749581426 -0.0004726876935845743 -0.043220756469276776 0.01074773870569934 4.759795057432463 -0.02097618673775405 -0.007144415480167604 0.0015499744144562189 -0.023300454824703574 0.00958022085277833 -0.020012973447585826 0.0210690741815116 -0.030399094390194153 -5.621441927584695 -0.00708631634667363 0.032327541772113895 -6.709506962799961 0.008835095125244186 -0.030364254162251674 -6.74224736860582 -0.012374605281571945 0.024978683859155044 0.03207342357450924 0.007521078601777018 -0.01924915559763119 8.077260925191831 3.5329978257244936 -19.188234977955755 0.035750002619599736 10.401651344180316 -0.0019947502881193027 -5.6392126743458935 -15.674503771595301 3.145456443290576 0.03758972064321706 -0.032113108114707696 -0.04060824965769248 -0.034227780086378216 4.668687996225034 0.04942465294763859 12.47642326078385 -8.26366966708217 6.842730005017258 0.028469473753396046 46.35138452766723 -0.03895492571662322 -4.339821407897377 -14.701032753781618 -3.847449840887544 0.020681188187188858 -0.019624185186465238 -0.028284575007600635 0.017649868172691742 -10.70586013909296 0.0015084762858026612 
0.04494785556621505 -0.009288636761633709 -0.009344523769846179 0.03642534359186927 -0.0010378489341213767 -0.015135536118565236 5.2551929168705485 3.2100721147524185 -2.297271923296596 -0.8260259049203753 3.422891302556688 0.44184985639642177 -0.5983668136867288 -0.8803051620420159 1.3585511980194327 -0.7633994599610269 -0.549959548023014 -0.177553764421598 -0.033528313553100486 11.09553649052002 -1.0804246958902035 0.04001190457681184 -1.1468040457176114 -2.7190659849873766 0.4606464981840354 -17.925059103245133 -0.25995699434435315 -10.793245942792824 3.862820640031883 -17.483582679508146 80.87633404808132 -3.59569609650699 13.00555482827318 30.201810085295005 2.8099970748816494 94.70720776219935 9.99560949403878 -0.5047313312361502 -4.080852495329076 4.545459055082418 -0.1283967299939423 -1.5931151319238335 0.0020902611639999303 0.01283358638355244 -56.274313744082 -0.005770827573796073 0.008970399973128198 -56.23877645087512 -38.758737169111676 -0.019504903704460987 -0.00024979371493398815 -0.03719293897780727 -0.024877391595619597 -0.04478475684531376 -0.01573475193574601 -0.042609769276996765 0.018723434099105818 -36.68514306246603 0.04102028767767252 0.0272944329516042 -0.02410803210040682 0.03401299925231927 0.017762516934618035 -0.0033645808374768433 -0.04019410937221054 0.011597127542073114 -19.73594762090895 0.005115210912987327 -0.01212330576758863 0.010535201453957171 0.010463137581753731 -0.002296716401530753 0.03439619000092772 -0.03205134115321472 0.04437781681129337 24.079517088325304 0.026584842771452857 0.0013327670682668341 28.88410794891256 0.015466827671146453 0.011468901294784188 28.873483864923294 -0.039136503895052285 0.011198197062024429 9.386596573857403 2.2836785728591336 14.418100186652223 -77.5024874779521 18.405164058576762 -10.541518700458074 -5.810365672846374 11.573316908333302 -51.099604692518696 -19.428930242891532 -1.6793205721063136 2.862828479318764 -0.43567370521061394 0.08134800494940754 -8.086903660633817 0.03425081081538134 -0.018410748420293024 44.573548927116384 0.035021787441062754 0.04337223784795593 44.60130311151717 12.438146066042322 0.022563960943070574 -0.019557811752425852 -0.049199458979668174 -0.03167813513274976 0.033939580335702976 -0.02486892618522358 -0.021346279135026423 -0.001517475910384881 11.060375292066004 -0.03504782491360802 -0.04738675330273058 -0.022182800271469447 0.02658161393900418 -0.020308159482533172 -0.03467095833550981 0.03299843502605542 -0.00018476114206569105 4.782594610980035 -0.01429564064946973 -0.03538195754160369 -0.003318142823775564 0.040064325914943376 -0.014893328936027439 0.02005002944786441 0.008912847732295389 -0.04551613949929478 -5.596649576565869 0.01274684073996805 -0.020022318962546314 -6.744652805645021 -0.03858796993467734 0.049320694953670766 -6.706537088963026 0.034205857440722694 0.04751147731293205 -0.047516763225923346 -0.043904072719747465 0.01801337677180144 8.01182358442017 3.5212187497057537 -19.254394600124165 0.03571533790036768 10.387977744584331 0.02295971553939545 -5.641169913897913 -15.69846790295814 3.2182922729513628 -0.02320264300843805 0.044633771733317694 -0.03726797272746246 0.048799475706054675 4.708298864005729 -0.020784401041006494 12.423688030241124 -8.208548638078636 6.923867318231531 -0.03347940100088337 46.376221310393376 0.0074095858666622305 -4.363966186076289 -14.7474517509924 -3.826551295443795 0.0035018515885084102 -0.03917531242631912 -0.006847152422743515 0.015961175405985323 -10.75929803046102 -0.03806111359768083 
-0.03220033638846716 -0.029507289537937794 -0.010536098595191858 0.009553928026239758 -0.03410777646845425 -0.01967114023975633 5.291347651613594 3.137290926897265 -2.2624276907400995 -0.8244424372564293 3.386439984271372 0.4286874303219317 -0.6094693918194968 -0.9072477251132282 1.3811727470373152 -0.6651976262612069 -0.5339588936651186 -0.15299670760430245 0.010216812733364063 11.070299552367779 -1.3319993106842316 0.07355884438970257 -1.1707995629133374 -3.3449181669117576 0.5907541584144841 -18.015474228324326 -0.2698829051579711 -10.714667288540005 3.8801598762840075 -17.62285009101364 80.57911950949696 -3.1536947366175045 12.611488730650159 29.366430662445953 3.2587451521005644 95.08894236981479 10.48350104438006 -0.5150330731321174 -4.290179332995893 4.575420977866887 -0.08547868767380076 -1.6314428616649035 -0.0012047678332503442 0.008413505031681246 -56.24173268239305 0.02432903018315357 0.012630323946957081 -56.23533194201362 -38.722685602132884 -0.04716906879405775 -0.012181111471724215 0.046275781749372684 -0.018273766827300496 -0.04558959230700972 -0.04213674370678858 -0.020574560453186078 0.015876148934670358 -36.64501590818057 0.008850871953760261 -0.046873834087509524 -0.0223849503353502 0.027896515272210463 -0.04797376144600092 0.04499389373912032 -0.016653354039368615 0.040945118309951054 -19.71084204276084 -0.00991713942428135 -0.04297345978366461 0.0298628788972124 0.013945319714738688 -0.02159813790156992 -0.0456057446769349 -0.047398096797312265 -0.0018333306807258177 24.095442876528715 0.04571498418798614 0.035100931024169085 28.875166824354874 -0.021150676506169645 -0.0014157099985836357 28.911407111299383 -0.03649455684812013 -0.018479406829856753 9.14457595389532 2.3010016165825857 14.469309552455172 -77.51629756038035 18.3970933836561 -9.569741842142118 -4.971642088684454 11.374269715039814 -49.81474459682473 -19.680123953155793 -1.5834406600607827 2.846427009144217 -0.4968829566190705 0.020588789160395374 -8.101401822971 0.03986953391835465 -0.02815038168919116 44.525787721393876 -0.020855913165251604 0.04954064178001575 44.587100986946844 12.418742172659094 -0.016305071523576496 -0.017508794966979577 -0.005425216567283524 -0.047869865698734346 -0.001846124998062197 -0.019289042153859726 0.005892154839838963 0.02067525126599424 11.056335958804585 -0.004705755542104271 0.012262769126293652 0.03165922105310046 0.017149244978199658 0.00921770664498027 -0.0303424435675661 0.02619581836987176 0.03785647573310696 4.770281360704824 -0.04014639516570499 0.03152318872515486 -0.018099418201388322 0.03418354308360711 0.0004264806486000115 0.029793091131790395 0.00554745212501575 0.021602891130495912 -5.582806473994652 -0.005865546421301271 0.04332279760071433 -6.680701698776128 0.005207436313699093 -0.01152292841123867 -6.684975921307879 0.026846774702260635 7.900771916007895e-05 -0.018305941757807576 -0.028343376589907026 -0.029308873660216814 8.049920175468593 3.5044312723758533 -19.202528844342737 -0.03486522807736282 10.384703008846936 0.00033640187733931584 -5.634084052195583 -15.632942546744317 3.174806980983761 0.026782336125776574 -0.0005536074522807916 0.007482804949075477 -0.010883884984359035 4.677222077903394 -0.002642681074054744 12.457311228642926 -8.255820550193794 6.905435551370523 -0.006768898003969261 46.391413464667835 -0.009450539259358234 -4.315336442393123 -14.749709514741916 -3.869949749333373 -0.0036665130706416303 -0.043111185056350206 0.013077537917046064 0.023367910400840897 -10.781660869421678 0.02834260701168357 
